<?xml version="1.0" encoding="UTF-8"?>
<svg id="Livello_1" data-name="Livello 1" xmlns="http://www.w3.org/2000/svg" viewBox="0 0 110.28 104.71">
  <defs>
    <style>
      .cls-1 {
        fill: #ee6464;
      }
    </style>
  </defs>
  <path class="cls-1" d="M16.02,80.94H94.25c-8.81,12.04-23.05,19.86-39.11,19.86s-30.3-7.82-39.12-19.86Z"/>
  <path class="cls-1" d="M97.46,75.94c-.82,1.5-1.74,2.96-2.74,4.35H15.56c-.99-1.39-1.91-2.85-2.74-4.35H97.46Z"/>
  <path class="cls-1" d="M100.14,70.29c-.56,1.48-1.24,2.92-1.97,4.33H12.1c-.73-1.41-1.41-2.85-1.97-4.33H100.14Z"/>
  <path class="cls-1" d="M102.45,62.83c-.39,1.82-.9,3.6-1.5,5.33H9.33c-.6-1.72-1.11-3.51-1.5-5.33H102.45Z"/>
  <path class="cls-1" d="M103.54,54.75c-.08,1.61-.24,3.19-.47,4.74H7.21c-.23-1.56-.39-3.13-.47-4.74H103.54Z"/>
  <path class="cls-1" d="M103.54,49.97H6.74C8,24.31,29.19,3.91,55.14,3.91s47.14,20.4,48.4,46.05Z"/>
</svg>