<?xml version="1.0" encoding="UTF-8"?>
<svg id="Livello_1" data-name="Livello 1" xmlns="http://www.w3.org/2000/svg" viewBox="0 0 172.7 171.65">
  <defs>
    <style>
      .cls-1 {
        fill: #ee6464;
      }
    </style>
  </defs>
  <path class="cls-1" d="M163.35,85.82c-42.43,.07-76.8,34.45-76.88,76.88l-.12,.12-.09-.09c-.06-42.46-34.45-76.86-76.9-76.91l.12-.12c42.35-.12,76.65-34.42,76.79-76.77l.09-.09,.12,.12c.15,42.32,34.43,76.61,76.76,76.74l.12,.12Z"/>
  <path class="cls-1" d="M47.91,124.29v38.48h-.06c-21.27,0-38.48-17.25-38.48-38.48H47.91Z"/>
  <path class="cls-1" d="M47.92,8.84V47.38H9.38v-.09C9.38,26.05,26.59,8.84,47.86,8.84h.06Z"/>
  <path class="cls-1" d="M163.3,124.29v1.01c-.33,13.82-7.98,25.82-19.21,32.32-5.66,3.28-12.21,5.15-19.21,5.15h-.12v-38.48h38.54Z"/>
  <path class="cls-1" d="M163.3,46.32v1.07h-38.54V8.85h.12c7,0,13.55,1.88,19.21,5.15,11.23,6.49,18.88,18.5,19.21,32.32Z"/>
  <path class="cls-1" d="M163.3,46.32v1.07h-38.54V8.85h.12c7,0,13.55,1.88,19.21,5.15,11.23,6.49,18.88,18.5,19.21,32.32Z"/>
  <path class="cls-1" d="M163.3,124.29v1.01c-.33,13.82-7.98,25.82-19.21,32.32-5.66,3.28-12.21,5.15-19.21,5.15h-.12v-38.48h38.54Z"/>
  <path class="cls-1" d="M47.91,124.29v38.48h-.06c-21.27,0-38.48-17.25-38.48-38.48H47.91Z"/>
</svg>