<?xml version="1.0" encoding="UTF-8"?>
<svg id="Livello_1" data-name="Livello 1" xmlns="http://www.w3.org/2000/svg" viewBox="0 0 172.7 171.65">
  <defs>
    <style>
      .cls-1 {
        fill: #ee6464;
      }
    </style>
  </defs>
  <path class="cls-1" d="M124.8,85.82c-21.19,.04-38.36,17.21-38.4,38.4l-.06,.06-.04-.04c-.03-21.21-17.21-38.39-38.41-38.41l.06-.06c21.15-.06,38.29-17.19,38.35-38.35l.04-.04,.06,.06c.07,21.14,17.2,38.26,38.34,38.33l.06,.06Z"/>
  <path class="cls-1" d="M86.29,124.24v.05c0,21.24-17.21,38.47-38.46,38.47S9.37,145.53,9.37,124.29s17.22-38.47,38.47-38.47h.04l38.41,38.41Z"/>
  <path class="cls-1" d="M86.29,47.3v.12l-38.35,38.35h-.1c-21.24,0-38.47-17.22-38.47-38.47S26.59,8.84,47.84,8.84s38.46,17.21,38.46,38.46Z"/>
  <path class="cls-1" d="M163.33,124.29c0,21.24-17.22,38.47-38.47,38.47s-38.47-17.22-38.47-38.47v-.07l38.4-38.4h.07c21.24,0,38.47,17.22,38.47,38.47Z"/>
  <path class="cls-1" d="M163.33,47.3c0,21.24-17.22,38.47-38.47,38.47h-.13l-38.34-38.33v-.13c0-21.24,17.22-38.46,38.47-38.46s38.47,17.21,38.47,38.46Z"/>
  <rect class="cls-1" x="124.75" y="8.84" width="38.53" height="38.53"/>
  <rect class="cls-1" x="9.37" y="8.84" width="38.53" height="38.53"/>
  <rect class="cls-1" x="124.75" y="124.28" width="38.53" height="38.53"/>
  <rect class="cls-1" x="9.37" y="124.28" width="38.53" height="38.53"/>
</svg>