<?xml version="1.0" encoding="UTF-8"?>
<svg id="Livello_1" data-name="Livello 1" xmlns="http://www.w3.org/2000/svg" viewBox="0 0 93.93 93.91">
  <defs>
    <style>
      .cls-1 {
        fill: #ee6464;
      }
    </style>
  </defs>
  <g>
    <path class="cls-1" d="M12.1,72.44H81.83c-7.86,10.73-20.54,17.7-34.87,17.7s-27.01-6.97-34.87-17.7Z"/>
    <path class="cls-1" d="M46.97,3.77C23.83,3.77,4.94,21.96,3.83,44.82H90.1C88.99,21.96,70.1,3.77,46.97,3.77ZM28.72,36.2h-9.95v-9.95h9.95v9.95Zm23.22,0h-9.95v-9.95h9.95v9.95Zm23.22,0h-9.95v-9.95h9.95v9.95Z"/>
  </g>
  <g>
    <rect class="cls-1" x="41.99" y="54.14" width="9.95" height="9.95"/>
    <rect class="cls-1" x="73.94" y="54.14" width="9.95" height="9.95"/>
    <rect class="cls-1" x="57.97" y="54.14" width="9.95" height="9.95"/>
    <rect class="cls-1" x="26.01" y="54.14" width="9.95" height="9.95"/>
    <rect class="cls-1" x="10.04" y="54.14" width="9.95" height="9.95"/>
  </g>
</svg>