<?xml version="1.0" encoding="UTF-8"?>
<svg id="Livello_1" data-name="Livello 1" xmlns="http://www.w3.org/2000/svg" viewBox="0 0 99.86 104.71">
  <defs>
    <style>
      .cls-1 {
        fill: #fff;
      }
    </style>
  </defs>
  <path class="cls-1" d="M61.31,34.53c-16.09,.03-29.13,13.07-29.16,29.16l-.05,.05-.03-.03c-.02-16.11-13.07-29.16-29.17-29.17l.05-.05c16.07-.05,29.08-13.06,29.13-29.12l.03-.03,.05,.05c.06,16.05,13.06,29.06,29.12,29.11l.05,.05Z"/>
  <path class="cls-1" d="M96.96,70.18c-16.09,.03-29.13,13.07-29.16,29.16l-.05,.05-.03-.03c-.02-16.11-13.07-29.16-29.17-29.17l.05-.05c16.07-.05,29.08-13.06,29.13-29.12l.03-.03,.05,.05c.06,16.05,13.06,29.06,29.12,29.11l.05,.05Z"/>
</svg>