<?xml version="1.0" encoding="UTF-8"?>
<svg id="Livello_1" data-name="Livello 1" xmlns="http://www.w3.org/2000/svg" viewBox="0 0 93.93 93.91">
  <defs>
    <style>
      .cls-1 {
        fill: #3d1d1d;
      }
    </style>
  </defs>
  <path class="cls-1" d="M60.03,60.04c-7.22-7.19-18.9-7.19-26.12,0h-.04s0-.03,0-.03c7.2-7.22,7.2-18.91,0-26.13h.04c7.21,7.17,18.87,7.17,26.09,0h.03s0,.04,0,.04c-7.16,7.21-7.16,18.86,0,26.08v.04Z"/>
  <path class="cls-1" d="M33.87,60.01l-.02,.02c-7.22,7.22-18.94,7.23-26.16,0-7.22-7.22-7.22-18.94,0-26.16,7.22-7.22,18.94-7.22,26.16,0l.02,.02v26.13Z"/>
  <path class="cls-1" d="M60.04,33.84l-.04,.04h-26.09s-.04-.04-.04-.04c-7.22-7.22-7.22-18.94,0-26.16,7.22-7.22,18.94-7.22,26.16,0,7.22,7.22,7.22,18.93,0,26.16Z"/>
  <path class="cls-1" d="M60.05,86.23c-7.22,7.22-18.94,7.22-26.16,0-7.22-7.22-7.22-18.94,0-26.16l.02-.02h26.12s.02,.02,.02,.02c7.22,7.22,7.22,18.94,0,26.16Z"/>
  <path class="cls-1" d="M86.24,60.04c-7.22,7.22-18.94,7.22-26.16,0l-.04-.04v-26.08s.04-.05,.04-.05c7.22-7.22,18.94-7.22,26.16,0,7.22,7.22,7.23,18.94,0,26.16Z"/>
</svg>